<svg width="10" height="10" viewBox="0 0 10 10" fill="none" xmlns="http://www.w3.org/2000/svg">
<path d="M7.28027 2.90527L7.71973 3.34473L4.0625 7.00195L2.28027 5.21973L2.71973 4.78027L4.0625 6.12305L7.28027 2.90527ZM5 0C5.45898 0 5.90169 0.0585938 6.32812 0.175781C6.75456 0.292969 7.15332 0.460612 7.52441 0.678711C7.89551 0.89681 8.23242 1.15723 8.53516 1.45996C8.83789 1.7627 9.09831 2.10124 9.31641 2.47559C9.53451 2.84993 9.70215 3.2487 9.81934 3.67188C9.93652 4.09505 9.99674 4.53776 10 5C10 5.45898 9.94141 5.90169 9.82422 6.32812C9.70703 6.75456 9.53939 7.15332 9.32129 7.52441C9.10319 7.89551 8.84277 8.23242 8.54004 8.53516C8.2373 8.83789 7.89876 9.09831 7.52441 9.31641C7.15007 9.53451 6.7513 9.70215 6.32812 9.81934C5.90495 9.93652 5.46224 9.99674 5 10C4.54102 10 4.09831 9.94141 3.67188 9.82422C3.24544 9.70703 2.84668 9.53939 2.47559 9.32129C2.10449 9.10319 1.76758 8.84277 1.46484 8.54004C1.16211 8.2373 0.901693 7.89876 0.683594 7.52441C0.465495 7.15007 0.297852 6.75293 0.180664 6.33301C0.0634766 5.91309 0.00325521 5.46875 0 5C0 4.54102 0.0585938 4.09831 0.175781 3.67188C0.292969 3.24544 0.460612 2.84668 0.678711 2.47559C0.89681 2.10449 1.15723 1.76758 1.45996 1.46484C1.7627 1.16211 2.10124 0.901693 2.47559 0.683594C2.84993 0.465495 3.24707 0.297852 3.66699 0.180664C4.08691 0.0634766 4.53125 0.00325521 5 0ZM5 9.375C5.40039 9.375 5.78613 9.32292 6.15723 9.21875C6.52832 9.11458 6.87663 8.9681 7.20215 8.7793C7.52767 8.59049 7.82389 8.361 8.09082 8.09082C8.35775 7.82064 8.58561 7.52604 8.77441 7.20703C8.96322 6.88802 9.11133 6.53971 9.21875 6.16211C9.32617 5.78451 9.37826 5.39714 9.375 5C9.375 4.59961 9.32292 4.21387 9.21875 3.84277C9.11458 3.47168 8.9681 3.12337 8.7793 2.79785C8.59049 2.47233 8.361 2.17611 8.09082 1.90918C7.82064 1.64225 7.52604 1.41439 7.20703 1.22559C6.88802 1.03678 6.53971 0.888672 6.16211 0.78125C5.78451 0.673828 5.39714 0.621745 5 0.625C4.59961 0.625 4.21387 0.677083 3.84277 0.78125C3.47168 0.885417 3.12337 1.0319 2.79785 1.2207C2.47233 1.40951 2.17611 1.639 1.90918 1.90918C1.64225 2.17936 1.41439 2.47396 1.22559 2.79297C1.03678 3.11198 0.888672 3.46029 0.78125 3.83789C0.673828 4.21549 0.621745 4.60286 0.625 5C0.625 5.40039 0.677083 5.78613 0.78125 6.15723C0.885417 6.52832 1.0319 6.87663 1.2207 7.20215C1.40951 7.52767 1.639 7.82389 1.90918 8.09082C2.17936 8.35775 2.47396 8.58561 2.79297 8.77441C3.11198 8.96322 3.46029 9.11133 3.83789 9.21875C4.21549 9.32617 4.60286 9.37826 5 9.375Z" fill="#0000FF"/>
</svg>
